<?xml version="1.0" encoding="UTF-8"?>
<svg id="Layer_1" data-name="Layer 1" xmlns="http://www.w3.org/2000/svg" viewBox="0 0 465.38 450.64">
  <defs>
    <style>
      .cls-1 {
        fill: #444b6a;
      }

      .cls-2 {
        font-family: Courier, Courier;
        font-size: 25px;
        letter-spacing: .2em;
      }

      .cls-2, .cls-3 {
        fill: #fff;
      }

      .cls-4 {
        fill: #5b648d;
      }

      .cls-5 {
        fill: #bbb7d4;
      }

      .cls-6 {
        fill: #9da2bb;
      }

      .cls-7 {
        fill: #d9d2ff;
      }

      .cls-8 {
        fill: #b3d1c2;
      }
    </style>
  </defs>
  <path class="cls-5" d="M322.72,219.23c-1.93.89-3.29,1.61-3.8,2.11-.8.79-1.75,7.64-4.1,11.3-5.5,8.56-25.46,28.17-36.63,26.13l15.54-11.68c6.59-6.67,3.59-16.77-2.09-23.09-2.17-2.41-6.89-2.46-8.32-7.08-2.69-8.71,3.09-18.04,1.98-26.85,9.35,2.68,17.32,5.4,24.86,11.85l12.56,17.31Z"/>
  <path class="cls-4" d="M401.35,96.52c-4.39-5.22-20.85-18.81-22.42-22.45-1.36-3.15,3.17-17.46,3.51-22.6.87-12.88.28-26.46-5.1-37.53-.31-2.06-.06-5.01-3.46-6.09-22.96-.24-40.85,15.56-58.54,27.87-28.18-17.88-59.71-23.63-92.86-21-10.75.85-33.43,8.3-42.06,6.75-12.79-2.28-39.87-33.72-52.65-16.17-8.33,11.43-4.95,35.73-6.31,49.39-40.68,14.89-75.65,51.01-97.47,94.02C-1.51,198.93-9.08,258.53,13.09,304.69c5.27,10.96,11.01,21.37,17.22,31.2.33.54.66,1.07,1.01,1.6,55.28,86.5,145.41,127.62,245.74,108.55,16.92-3.21,34.13-8.13,51.51-14.84,138.29-53.36,163.87-226.45,72.78-334.68ZM310.16,201.92l12.56,17.31c-1.93.89-3.29,1.61-3.8,2.11-.8.79-1.75,7.64-4.1,11.3-5.5,8.56-25.46,28.17-36.63,26.13l15.54-11.68c6.59-6.67,3.59-16.77-2.09-23.09-2.17-2.41-6.89-2.46-8.32-7.08-2.69-8.71,3.09-18.04,1.98-26.85,9.35,2.68,17.32,5.4,24.86,11.85ZM329.16,31.35c6.39-5.08,33.72-20.6,40.7-20.92,1.67-.08,6.1,3.11,7.44,4.32.84,7.3.75,36.16.17,41.23-1.46,12.77-8.8,27.29-11.23,40.18.96,4.67,18.2,16.24,20.92,21.66,3.84,7.67-13.34-.44-14.2,2.34,3.38,6.69,18.95,14.26,21.3,18.99,3.69,7.41-13.51-1.86-14.19,2.34l18.95,22.5-54.49-14.18,26.04,9.53-2.3,4.54c4.37-.61,25.35,13.03,21.26,16.7l-26.05-4.71,6.83,5.04-2.02,4.27,11.77,7.24-30.79,4.78,5.93,4.73c-3.75,5.73-21.86,12.59-31.07,16.66,1.82-6.9,8.2-11.71,13.13-15.76,1.82-1.49,2.13-4.47,4.15-5.77,4.6-2.97,13.46-2.47,17.32-8.18l-9.46-1.2,7.09-2.37-4.72-4.7,9.47-.04-9.5-5.9,9.5-1.2-9.5-5.91,9.49-3.54c-18.57-1.86-45.05-21-61.5-5.84-3.11,2.85-4.18,7.04-6.07,10.62-1.77,3.36.32,5.88-5.87,4.67,4.05-8.42,1.57-17.28,3.41-26.19.98-4.7,12.37-28.6,17.93-23.54l1.13,4.7,20.17-7.07-7.09,7.08,18.93.03-9.46,4.7,18.94,2.41-4.72,4.7,11.83.04-18.94,4.7,42.63,11.86c2.68-2.64-6.38-17.3-11.69-16.89l2.23-6.78-11.84-3.58,11.82-3.53-9.45-3.58,7.09-3.53-8.42-2.3.94-4.49-9.1-2.72,7.13-5.91-7.17-1.19-4.69-4.75,4.72-4.7c-6.39-2.83-10.17-1.68-16.58-.03l7.1-7.08-9.78-3.5.31-5.98-9.48,2.34,2.19-4.43c-13.51-4.36-6.69-7.08-4.57-16.88-2.74.37-5.09,1.28-7.94,1.41-2.09.09-13.6.55-13.33-2.6,10.89-6.2,17.77-17.3,27.25-24.84Z"/>
  <path d="M137.87,104.44c-.96-11.85-8.25-22.19-10.75-34.62-1.51-7.51-.23-15.68-3.04-23.1,4.78-35.73,2.27-51.11,39.59-30.04,18.96,10.71,39.28,28.8,48.18,48.97l-9.49-5.9,2.34,9.47-7.1-2.35-4.77,4.74,2.43,4.71c-8.77-2.05-14.92-2.53-23.7.03l4.72,4.7-9.49.03-4.71,4.74,4.74,2.37c-1.93,6.82-6.65,2.49-11.84,2.37l4.72,4.7-9.45,2.41v2.33s9.46,2.37,9.46,2.37l-11.83.03,4.72,7.08-9.49.03,2.41,4.71-9.49.03,4.75,3.54-4.75,2.36,7.09,5.91-14.2,2.41,9.49,2.36-2.41,4.71,11.86,2.37-33.16-2.37,18.95-13.02c-4.02-3.2-12.67-3.1-11.83-10.65l16.58-.03-4.73-5.92,4.23-1.51Z"/>
  <path d="M199.53,34.3c-2.37-1.82-8.91.56-11.36-4.17,2.3-3.27,5.88-3.79,9.38-4.8,30.14-8.67,79.11-3.4,106.73,11.98,2.01,1.12,6.56.47,4.68,4.64-.89,1.97-4.77,4.95-6.85,3.27l-1.61-4.54-4.67,2.26-2.08-4.29c-9.55,6.22-11.69-8.35-22.37-2.99l-.33-4.34-3.53,4.75-2.36-4.75-5.91,7.09-1.2-7.12-3.54,4.75-1.25-6.54-2.34,1.33-1.18-4.23-4.74,4.71c-4.08.88-1.5-2.93-2.55-4.56-.8-1.23-12.65,4.75-12.85,9.29l-3.57-9.46-2.37,7.09c-3.99,1.02-1.58-3.54-2.64-4.3-5.74-4.06-7.36,3.89-7.95,4.04l-9.44-2.15-1.29,7.15c-3.91.98-1.38-3.02-2.8-4.12Z"/>
  <path d="M382.43,104.79c8.1-.02,10.65,9.49,15.41,14.19l-.02-9.46,10.69,18.93,2.37-7.1c2.77-3.29,14.97,27.34,16.12,30.08l-4.28.73,2.34,14.2-7.11-11.82-3.52,9.46-5.95-11.83c-6.6-.88,5.1,16.61-3.52,9.45l-8.3-16.56,9.46-1.18-23.68-18.97h11.85s-11.86-20.11-11.86-20.11Z"/>
  <path d="M207.1,116.63c2.41-2.55,13.81,10.65,17.77,11.83,2.88.86-1.27-8.04,3.52-7.08,2.18,7.69,8.91,12,12.81,19.19,5.58,10.28,9.16,23.6,8.52,35.29-8.8-5.76-19.77-18.61-30.11-20.81-19.93-4.26-46.71,22.56-69.39,18.43l21.32-17.76c-4.57-2.1-6.1-1.72-4.36-7.94,7.61-3.02,11.67-10.34,20.76-10.02l.29-7.87-4.83-3.76,14.2,2.35.03-9.48,14.2,7.09-4.73-9.45Z"/>
  <path d="M107.59,152.18l28.41-11.86c.95.93-1.23,6.5-2.33,7.86-1.91,2.35-5.53.32-4.76,3.96l9.46,1.19-13.07,3.73-17.71-4.88Z"/>
  <path d="M109.95,168.78l28.42-9.5-7.1,14.19,35.53,4.78c-1.09,6.31-14.29-2.58-11.85,7.08l9.48.03-4.72,4.7c7.33-1.16,1.07,4.25,6,6.9l20.03,5-7.08,4.7c3.69.99,9.57,2.56,12.51,4.69,2.08,1.51,2.56,4.51,4.22,5.74,5.57,4.13,13.22,6.9,16.43,13.28l-35.55-7.11,9.47-7.07-35.52-9.52,7.1-2.37c.67-.57-1.25-3-2.34-3.56-8.32-4.27-23.93-6.84-33.2-10.66-1.97-6.78,6.74-4.85,11.89-5.87,2.56-.51,7.69-.17,7.05-3.57-9.14-1.54-18.84-3.51-27.46-6.94-3.04-1.21-4.17,1.13-3.33-4.9Z"/>
  <path d="M299.5,171.13c4.68,0,7.32,3.02,12.48,2.05,5.3-1,7.96-7.29,13.58-6.79-3.94,8.77-20.33,14.64-26.06,4.74Z"/>
  <path d="M228.4,173.46c-7.88,3.3-24.56,4.21-26.03-7.09l11.78,6.19,14.26.89Z"/>
  <path d="M427.43,213.76l-2.33-30.79c3.38-.56,3.28,4.14,4.02,6.6,1.65,5.56,3.21,11.21,3.09,17.07l4.7-11.83,2.4,26.05,4.7-21.31,4.74,49.74-4.7-4.72-.04,26.05-4.74-33.15c-4.14-.55-2.24,5.38-2.35,8.27-.26,6.7.2,13.47-.02,20.15l-4.49-15.63-.25-12.79-7.07,18.94-2.4-26.05-4.74,16.56-2.37-18.93-4.74,16.56-2.37-16.56-7.07,14.2c-.11-4.32.08-8.7-.02-13.04-.07-2.85,1.76-8.83-2.35-8.27-.26,5.32,1.5,16.49-4.74,18.94-.11-4.32.08-8.7-.02-13.04-.07-2.85,1.76-8.83-2.35-8.27.56,4.13-.5,7.88-1.19,11.86-.49,2.85-.05,9.95-3.55,9.45l-2.37-42.63,4.7,9.46,2.37-14.2,4.74,16.57v-21.3s7.11,21.3,7.11,21.3l-2.33-26.05,4.74,16.57,2.37-16.58c2.91-3.53,9.06,20.31,7.11,23.69l4.7-21.31,7.11,28.41Z"/>
  <path d="M236.22,193.38c6.49-2.69,13.38-4.28,20.45-3.12l7.45,29.09c-12.44,7.29-20.26,17.06-7.38,28.88l14.31,10.55c-26.91-1.14-85.38-33.35-44.86-60.4,4.28-2.86,8.23-1.54,8.79-1.96s.52-2.74,1.23-3.03Z"/>
  <path d="M372.93,218.5l2.37-7.09c1.39,36.14-21.47,89.92-48.55,113.73-2.65,2.33-3.89,5.69-8.29,4.73l10.2-21.77,1.66-11.38,2.33,18.93c5.15-12.72,8.91-23.75,7.15-37.9l7.07,11.83c5.33-14.52,11.27-29.09,9.52-45l4.7,23.67c3.45-10.35,6.07-19.61,4.78-30.78l4.7,4.72-2.33-28.42,4.7,4.72Z"/>
  <path d="M256.86,239.82l2.22-10.79,11.98-1.04c.8,3.84-3.52,6.48-6.17,9.18-2.95,3-3.56,3.26-8.03,2.65Z"/>
  <path d="M107.57,254.03c5.31-.29,8.29-4.49,13.55-6.57,9.03-3.57,18.57-5.12,27.88-7.66l-3.52,7.12c15.84-3.97,29.34-.41,45,2.41,1.75,3.09-9.43,1.92-2.37,5.91,4.01,2.27,9.89,2.62,14.25,4.71,5.61,2.68,9.9,7.81,16.55,8.34l-16.56,4.7c9.51.94,19.45,6.23,26.05,13.06l-4.73,2.35c5.83,6.05,12.92,13.93,14.19,22.52-5.78-4.28-11.97-10-16.71-15.4-1.69-1.92-.04-4.86-2.19-6.99-9.24-9.16-24.85-18.53-37.94-20.28l9.46-4.7c-14.77-2.63-31.53-8.59-46.47-9.39-7.12-.38-11.02,5.27-16.89,6.49-14.94,3.09-9.24,3.16-21.08,9.65-13.01,7.14-26.22,7.9-29.3,26.39l-1.15-14.2-10.65,18.94c-5.62-7.24,18.78-45.7,21.29-42.64l1.19,7.1,21.34-18.94-1.19,7.08Z"/>
  <path d="M380.08,275.37c5.69-2.77,8.02-10.91,9.48-16.57,5.87,1.42-2.16,12.31,0,16.57l9.44-14.2c.72,6.65-2.28,12.58-3.68,18.82-.54,2.42-3.11,7.76,1.31,7.23,1.84-6.1,4.13-12.32,6.76-18.14,1.2-2.66,1.81-8.2,5.09-7.91l-4.7,28.42,11.81-21.31-2.33,23.68,8.28-21.33c3.25,3.39-.47,9.43-.96,13.29-.33,2.57-2.04,8.61,2.13,8.04-.09-4.41,1.61-8.37,2.98-12.45.83-2.47.86-7.06,4.13-6.49l-4.7,30.78,9.44-18.94-2.33,23.68,9.44-18.94c3.45,5.65-15.26,54.27-18.92,49.75v-14.2c-1.65,7.04-5.02,15.58-11.85,18.94v-14.2s-13.06,23.67-13.06,23.67l8.28-28.43c-5.52,4.3-8.11,11.09-12.85,16.83-2.02,2.45.11,5.99-6.09,4.47l9.46-21.31-16.55,16.59c-.63-6.39,6.09-9.71,7.13-15.37,2.07-11.26-13.65,4.22-14.24,3.53l7.07-16.59-16.55,14.22,11.81-23.69-11.81,9.48,5.91-14.21-13.02,11.84,11.81-18.95-14.2,9.46c1.4-5.03,8.8-7.75,10.75-11.9,1.44-3.06-1.73-15.31,5.83-20.09l4.73,5.93c1.47-5.66,3.79-13.81,9.48-16.57l-4.7,16.59Z"/>
  <path d="M159.68,322.78c7.37-2.9,15.27,3.38,20.06,3.7,4.26.29,16.29-.86,21.45-1.32,41.73-3.74,81.24-22.13,110.13-52.16-.33,5.81-7.61,11.72-11.78,15.45-22.75,20.3-61.65,40.51-92.45,39.07l11.83,4.7c-13.45,1.28-25.17-1.03-37.9-4.7l9.48,9.44c-7.47.04-14.05-4.61-20.17-7.06-6.82-2.73,2.15,6.46-4.72,4.74-6.66-1.67-12.9-6.63-20.12-7.15,3.19-9.12,10.64,1.21,16.6,0l-2.41-4.71Z"/>
  <path d="M292.4,346.47c13.61.39,28.64-15.56,39.12-18.95,1.19-.39,3.88-.64,3.51,1.15l-7.1,8.28,11.85-4.7-7.1,11.82,21.32-11.82-18.95,20.13c2.55,4.04,5.18-1.1,7.07-2.41,5.83-4.03,10.97-8.78,16.6-13,3.41,3.81-17.79,18.88-18.94,23.68l26.05-18.94-14.2,21.31c3.22,2.95,14.82-12.13,17.78-14.19,3.58,4.41-12.44,17.32-10.67,18.93,7.76-.58,12.05-9.95,17.78-14.19,2.42,9.53-13.92,16.15-15.39,26.05l20.13-18.95c4.04,2.55-1.1,5.18-2.41,7.07-3.37,4.87-7.33,9.34-10.63,14.23,3.73,3.36,16.78-15.59,21.31-16.57,1.34,5.65-20.15,24.98-18.94,26.05,7.13-.45,11.46-8.74,16.57-13.03,1.88-1.58,4.73-6.24,7.11-2.37-5.74,5.22-10.64,11.63-16.76,16.41-5.06,3.96-27.08,18.75-31.84,20.3-1.19.39-3.88.64-3.51-1.15l8.27-10.69-24.86,11.85,18.95-18.92c-10.96,2.7-18.57,14.71-30.8,14.18l18.95-16.55-21.32,7.07,13.02-14.22-20.12,7.11,21.32-18.92-28.43,9.44,21.32-18.92-23.69,5.91,21.32-15.39c-6.22.57-11.8,3.62-18,4.5-2.51.36-8.64,1.99-8.05-2.13l13.45-4.33,12.59-7.52c-5.84-.68-10.58,3-15.91,4.22-2.38.54-8.36,2.35-7.77-1.84Z"/>
  <path d="M48.32,344.09l1.19-4.73,16.58,11.86-5.91-9.48,38.98,2.46,27.35,14.09-14.2-2.34,3.53,7.12-20.12-7.12c2.77,5.69,10.91,8.02,16.57,9.48.66,3.69-3.44,2.72-5.8,2.26-10.68-2.07-17.32-11.55-27.36-14.12l18.95,17.76c-8.86,4.19-15.02-8.62-23.69-8.28l14.21,15.39c.37,1.76-2.51,1.63-3.52,1.16-4.25-1.95-26.06-25.04-27.25-23.68-1.02,4.46,2.46,5.61,4.72,8.29,5.57,6.62,13.17,12.38,18.95,18.96.37,1.76-2.49,1.62-3.52,1.16-4.7-2.1-34.49-36.08-36.73-41.48-.44-1.07-.61-3.89,1.16-3.52l5.92,4.73Z"/>
  <path d="M260.4,438.86h-43.83l15.64-4.5,12.79-.25-16.57-2.37,4.72-4.7-30.79-.04,30.78-7.11c.55-4.14-5.38-2.23-8.27-2.35-5.67-.23-12.71,1.21-17.78-1.18,2.88-4.44,6.66-3,10.63-3.59,9.22-1.37,18.21-2.59,27.26-4.74-.5-6.39-9.48.02-10.65.02h-34.36l30.82-8.29c0-2.2-18.95-1.04-22.54-1.19-2.89-.12-8.82,1.79-8.27-2.35l23.26-3.99,14.64-5.5h-33.17l28.45-8.29c0-2.07-14.13-1.05-17.55-1.42-2.31-.25-11.15-1.12-10.89-4.49l35.52-2.4-16.57-4.7,49.74-7.11-14.2,7.07c4.09.91,7.71-1.22,11.3-1.72,2.6-.36,8.1-2.71,7.63,1.71l-26.04,9.48c7.56,1.12,14.15-2.11,21.19-3.68,2.43-.54,7.76-3.11,7.23,1.3l-30.78,14.22c8.2-.46,15.6-4.33,23.57-6.04,2.44-.52,7.74-3.14,7.21,1.29l-30.78,14.22,33.16-7.07-9.68,8.07-18.74,10.85,33.16-9.44-16.59,14.18,23.69-5.91-28.42,17.76,30.79-9.44-21.31,14.18c5.77.18,10.98-2.46,16.45-3.68,2.42-.54,7.77-3.1,7.23,1.31l-39.08,11.87Z"/>
  <path d="M145.49,363.06l54.48,2.37-16.6,5.91c.04,2.54,16.08-.39,16.6,5.91l-35.52-2.33,28.41,9.48c.07,4.08-10.54,2.67-13.13,2.46-6.09-.5-11.55-2.76-17.65-2.46l21.31,9.44-28.42.04c-.2,3.3,8.58,3.63,11.3,4.07,5.9.95,14.65-1.3,17.12,5.37l-37.9-2.33,16.47,6.01,21.42,3.47c.57,4.1-5.42,2.29-8.26,2.34-7.77.15-12.36-.75-19.63-1.73-2.61-.35-8.1-2.72-7.64,1.72l33.15,7.15-28.41,4.7,37.89,9.48c-29.3,1.7-55.3-13.47-80.54-26.07-.55-4.36,4.92-2,7.25-1.32,6.44,1.86,11.83,6.47,18.8,6.07l-26.05-16.55c7.64-.18,14.13,4.15,21.18,6.05,2.38.64,7.74,3.11,7.23-1.31l-30.78-16.59,23.68,4.7-11.82-7.11c-.6-3.11.89-2.57,3.55-2.39,7.76.51,14.39,5.91,22.49,4.77l-21.31-11.81,33.15,7.07c.55-3.41-3.99-3.11-6.51-4.11-7.85-3.09-16.18-5.42-24.27-7.74-.57-4.16,5.48-2.45,8.04-2.12,5.85.76,11.55,3.49,18,2.12l-7.09-4.7Z"/>
  <path class="cls-8" d="M260.4,438.86l39.08-11.87c.54-4.41-4.8-1.85-7.23-1.31-5.47,1.23-10.68,3.86-16.45,3.68l21.31-14.18-30.79,9.44,28.42-17.76-23.69,5.91,16.59-14.18-33.16,9.44,18.74-10.85,9.68-8.07-33.16,7.07,30.78-14.22c.53-4.44-4.78-1.82-7.21-1.29-7.96,1.71-15.36,5.57-23.57,6.04l30.78-14.22c.54-4.42-4.8-1.85-7.23-1.3-7.04,1.57-13.62,4.8-21.19,3.68l26.04-9.48c.47-4.43-5.03-2.08-7.63-1.71-3.59.5-7.21,2.63-11.3,1.72l14.2-7.07-49.74,7.11,16.57,4.7-35.52,2.4c-.26,3.37,8.58,4.24,10.89,4.49,3.43.37,17.54-.65,17.55,1.42l-28.45,8.29h33.17l-14.64,5.5-23.26,3.99c-.55,4.15,5.38,2.23,8.27,2.35,3.59.14,22.55-1.01,22.54,1.19l-30.82,8.29h34.36c1.17,0,10.15-6.41,10.65-.02-9.05,2.14-18.04,3.37-27.26,4.74-3.97.59-7.75-.86-10.63,3.59,5.07,2.38,12.11.95,17.78,1.18,2.89.12,8.82-1.79,8.27,2.35l-30.78,7.11,30.79.04-4.72,4.7,16.57,2.37-12.79.25-15.64,4.5h43.83Z"/>
  <path class="cls-8" d="M380.08,275.37l4.7-16.59c-5.69,2.77-8.02,10.91-9.48,16.57l-4.73-5.93c-7.56,4.78-4.39,17.03-5.83,20.09-1.95,4.15-9.35,6.86-10.75,11.9l14.2-9.46-11.81,18.95,13.02-11.84-5.91,14.21,11.81-9.48-11.81,23.69,16.55-14.22-7.07,16.59c.59.69,16.31-14.79,14.24-3.53-1.04,5.66-7.76,8.98-7.13,15.37l16.55-16.59-9.46,21.31c6.2,1.51,4.07-2.02,6.09-4.47,4.74-5.74,7.33-12.53,12.85-16.83l-8.28,28.43,13.06-23.67v14.2c6.83-3.36,10.19-11.9,11.85-18.94v14.2c3.66,4.52,22.36-44.1,18.92-49.75l-9.44,18.94,2.33-23.68-9.44,18.94,4.7-30.78c-3.27-.57-3.3,4.02-4.13,6.49-1.37,4.08-3.07,8.03-2.98,12.45-4.17.56-2.45-5.48-2.13-8.04.49-3.85,4.21-9.9.96-13.29l-8.28,21.33,2.33-23.68-11.81,21.31,4.7-28.42c-3.29-.29-3.89,5.24-5.09,7.91-2.62,5.82-4.92,12.03-6.76,18.14-4.42.54-1.85-4.81-1.31-7.23,1.39-6.24,4.4-12.16,3.68-18.82l-9.44,14.2c-2.16-4.25,5.88-15.14,0-16.57-1.46,5.66-3.79,13.81-9.48,16.57Z"/>
  <path class="cls-8" d="M292.4,346.47c-.59,4.19,5.39,2.39,7.77,1.84,5.32-1.22,10.07-4.89,15.91-4.22l-12.59,7.52-13.45,4.33c-.6,4.12,5.54,2.49,8.05,2.13,6.2-.89,11.78-3.93,18-4.5l-21.32,15.39,23.69-5.91-21.32,18.92,28.43-9.44-21.32,18.92,20.12-7.11-13.02,14.22,21.32-7.07-18.95,16.55c12.23.53,19.84-11.48,30.8-14.18l-18.95,18.92,24.86-11.85-8.27,10.69c-.37,1.79,2.32,1.53,3.51,1.15,4.76-1.54,26.78-16.34,31.84-20.3,6.12-4.78,11.02-11.19,16.76-16.41-2.38-3.87-5.23.79-7.11,2.37-5.12,4.28-9.44,12.58-16.57,13.03-1.22-1.07,20.27-20.39,18.94-26.05-4.53.98-17.58,19.92-21.31,16.57,3.3-4.88,7.26-9.35,10.63-14.23,1.31-1.9,6.45-4.52,2.41-7.07l-20.13,18.95c1.48-9.91,17.81-16.52,15.39-26.05-5.72,4.24-10.02,13.61-17.78,14.19-1.77-1.61,14.25-14.52,10.67-18.93-2.96,2.06-14.55,17.15-17.78,14.19l14.2-21.31-26.05,18.94c1.15-4.8,22.35-19.86,18.94-23.68-5.62,4.23-10.76,8.97-16.6,13-1.9,1.31-4.52,6.45-7.07,2.41l18.95-20.13-21.32,11.82,7.1-11.82-11.85,4.7,7.1-8.28c.37-1.79-2.32-1.53-3.51-1.15-10.48,3.39-25.51,19.34-39.12,18.95Z"/>
  <path class="cls-8" d="M145.49,363.06l7.09,4.7c-6.45,1.37-12.15-1.36-18-2.12-2.56-.33-8.61-2.04-8.04,2.12,8.09,2.32,16.42,4.65,24.27,7.74,2.52.99,7.06.7,6.51,4.11l-33.15-7.07,21.31,11.81c-8.11,1.15-14.73-4.26-22.49-4.77-2.66-.17-4.14-.72-3.55,2.39l11.82,7.11-23.68-4.7,30.78,16.59c.52,4.42-4.85,1.95-7.23,1.31-7.06-1.9-13.54-6.23-21.18-6.05l26.05,16.55c-6.96.41-12.36-4.21-18.8-6.07-2.32-.67-7.8-3.04-7.25,1.32,25.24,12.6,51.24,27.77,80.54,26.07l-37.89-9.48,28.41-4.7-33.15-7.15c-.47-4.44,5.03-2.07,7.64-1.72,7.27.98,11.85,1.87,19.63,1.73,2.84-.05,8.83,1.76,8.26-2.34l-21.42-3.47-16.47-6.01,37.9,2.33c-2.47-6.68-11.22-4.43-17.12-5.37-2.72-.44-11.5-.77-11.3-4.07l28.42-.04-21.31-9.44c6.1-.3,11.56,1.97,17.65,2.46,2.6.21,13.2,1.62,13.13-2.46l-28.41-9.48,35.52,2.33c-.52-6.29-16.56-3.37-16.6-5.91l16.6-5.91-54.48-2.37Z"/>
  <path class="cls-5" d="M137.87,104.44l-4.23,1.51,4.73,5.92-16.58.03c-.84,7.54,7.81,7.44,11.83,10.65l-18.95,13.02,33.16,2.37-11.86-2.37,2.41-4.71-9.49-2.36,14.2-2.41-7.09-5.91,4.75-2.36-4.75-3.54,9.49-.03-2.41-4.71,9.49-.03-4.72-7.08,11.83-.03-9.46-2.37v-2.33s9.46-2.41,9.46-2.41l-4.72-4.7c5.19.12,9.91,4.45,11.84-2.37l-4.74-2.37,4.71-4.74,9.49-.03-4.72-4.7c8.79-2.56,14.94-2.08,23.7-.03l-2.43-4.71,4.77-4.74,7.1,2.35-2.34-9.47,9.49,5.9c-8.9-20.17-29.21-38.26-48.18-48.97-37.32-21.07-34.81-5.69-39.59,30.04,2.81,7.42,1.53,15.59,3.04,23.1,2.5,12.43,9.79,22.77,10.75,34.62ZM147.83,90.55c-2.29.08-3.35-2.22-4.23-4.03-6-12.27-14.29-58.32-8.78-69.41,3.5-7.04,9.66-3.63,15.18-.94,10.33,5.04,22.72,17.89,29.67,27.18,5.19,6.94,9.49,14.52,13.19,22.35l-32.67,8.89c-1.51,8.28-11.91,8.79-12.35,15.95Z"/>
  <path class="cls-8" d="M427.43,213.76l-7.11-28.41-4.7,21.31c1.95-3.37-4.2-27.21-7.11-23.69l-2.37,16.58-4.74-16.57,2.33,26.05-7.11-21.3v21.3s-4.74-16.57-4.74-16.57l-2.37,14.2-4.7-9.46,2.37,42.63c3.5.5,3.06-6.6,3.55-9.45.69-3.98,1.75-7.74,1.19-11.86,4.11-.56,2.29,5.42,2.35,8.27.1,4.35-.09,8.72.02,13.04,6.24-2.45,4.48-13.62,4.74-18.94,4.11-.56,2.29,5.42,2.35,8.27.1,4.35-.09,8.72.02,13.04l7.07-14.2,2.37,16.56,4.74-16.56,2.37,18.93,4.74-16.56,2.4,26.05,7.07-18.94.25,12.79,4.49,15.63c.22-6.68-.24-13.45.02-20.15.11-2.88-1.79-8.82,2.35-8.27l4.74,33.15.04-26.05,4.7,4.72-4.74-49.74-4.7,21.31-2.4-26.05-4.7,11.83c.12-5.87-1.45-11.52-3.09-17.07-.73-2.47-.64-7.16-4.02-6.6l2.33,30.79Z"/>
  <path class="cls-7" d="M207.1,116.63l4.73,9.45-14.2-7.09-.03,9.48-14.2-2.35,4.83,3.76-.29,7.87c-9.09-.31-13.15,7.01-20.76,10.02-1.74,6.22-.22,5.84,4.36,7.94l-21.32,17.76c22.69,4.14,49.47-22.68,69.39-18.43,10.33,2.21,21.31,15.05,30.11,20.81.64-11.69-2.95-25.01-8.52-35.29-3.9-7.19-10.62-11.5-12.81-19.19-4.79-.96-.64,7.94-3.52,7.08-3.96-1.18-15.36-14.38-17.77-11.83Z"/>
  <path class="cls-5" d="M236.22,193.38c-.71.3-.69,2.63-1.23,3.03s-4.51-.9-8.79,1.96c-40.52,27.05,17.95,59.26,44.86,60.4l-14.31-10.55c-12.88-11.83-5.06-21.59,7.38-28.88l-7.45-29.09c-7.08-1.16-13.97.43-20.45,3.12Z"/>
  <path class="cls-5" d="M109.95,168.78c-.84,6.03.29,3.69,3.33,4.9,8.62,3.42,18.32,5.4,27.46,6.94.64,3.39-4.49,3.06-7.05,3.57-5.15,1.02-13.86-.91-11.89,5.87,9.26,3.82,24.88,6.39,33.2,10.66,1.09.56,3.01,3,2.34,3.56l-7.1,2.37,35.52,9.52-9.47,7.07,35.55,7.11c-3.22-6.38-10.86-9.14-16.43-13.28-1.66-1.23-2.14-4.23-4.22-5.74-2.93-2.13-8.82-3.7-12.51-4.69l7.08-4.7-20.03-5c-4.93-2.64,1.33-8.05-6-6.9l4.72-4.7-9.48-.03c-2.44-9.66,10.76-.77,11.85-7.08l-35.53-4.78,7.1-14.19-28.42,9.5Z"/>
  <path class="cls-8" d="M48.32,344.09l-5.92-4.73c-1.77-.37-1.6,2.44-1.16,3.52,2.24,5.4,32.03,39.38,36.73,41.48,1.03.46,3.89.6,3.52-1.16-5.78-6.58-13.38-12.34-18.95-18.96-2.26-2.69-5.74-3.84-4.72-8.29,1.19-1.36,23.01,21.73,27.25,23.68,1.02.47,3.9.6,3.52-1.16l-14.21-15.39c8.66-.34,14.83,12.47,23.69,8.28l-18.95-17.76c10.04,2.56,16.68,12.05,27.36,14.12,2.37.46,6.47,1.42,5.8-2.26-5.66-1.47-13.81-3.79-16.57-9.48l20.12,7.12-3.53-7.12,14.2,2.34-27.35-14.09-38.98-2.46,5.91,9.48-16.58-11.86-1.19,4.73Z"/>
  <path class="cls-8" d="M382.43,104.79l11.86,20.11h-11.85s23.68,18.98,23.68,18.98l-9.46,1.18,8.3,16.56c8.62,7.16-3.08-10.33,3.52-9.45l5.95,11.83,3.52-9.46,7.11,11.82-2.34-14.2,4.28-.73c-1.15-2.74-13.35-33.37-16.12-30.08l-2.37,7.1-10.69-18.93.02,9.46c-4.76-4.7-7.31-14.21-15.41-14.19Z"/>
  <path class="cls-5" d="M199.53,34.3c1.42,1.1-1.11,5.1,2.8,4.12l1.29-7.15,9.44,2.15c.59-.14,2.21-8.1,7.95-4.04,1.06.75-1.35,5.32,2.64,4.3l2.37-7.09,3.57,9.46c.2-4.54,12.05-10.53,12.85-9.29,1.05,1.63-1.54,5.44,2.55,4.56l4.74-4.71,1.18,4.23,2.34-1.33,1.25,6.54,3.54-4.75,1.2,7.12,5.91-7.09,2.36,4.75,3.53-4.75.33,4.34c10.69-5.35,12.83,9.21,22.37,2.99l2.08,4.29,4.67-2.26,1.61,4.54c2.08,1.68,5.96-1.3,6.85-3.27,1.88-4.17-2.67-3.52-4.68-4.64-27.61-15.38-76.59-20.65-106.73-11.98-3.5,1.01-7.08,1.52-9.38,4.8,2.45,4.72,9,2.34,11.36,4.17Z"/>
  <path class="cls-5" d="M159.68,322.78l2.41,4.71c-5.96,1.21-13.41-9.12-16.6,0,7.22.52,13.46,5.49,20.12,7.15,6.87,1.72-2.1-7.47,4.72-4.74,6.12,2.45,12.7,7.11,20.17,7.06l-9.48-9.44c12.73,3.67,24.45,5.99,37.9,4.7l-11.83-4.7c30.8,1.44,69.7-18.77,92.45-39.07,4.18-3.73,11.46-9.64,11.78-15.45-28.89,30.03-68.4,48.42-110.13,52.16-5.16.46-17.19,1.61-21.45,1.32-4.79-.32-12.69-6.6-20.06-3.7Z"/>
  <path class="cls-5" d="M107.59,152.18l17.71,4.88,13.07-3.73-9.46-1.19c-.76-3.65,2.85-1.62,4.76-3.96,1.1-1.35,3.28-6.93,2.33-7.86l-28.41,11.86Z"/>
  <path class="cls-3" d="M256.86,239.82c4.47.6,5.08.35,8.03-2.65,2.65-2.69,6.96-5.34,6.17-9.18l-11.98,1.04-2.22,10.79Z"/>
  <path d="M228.4,173.46l-14.26-.89-11.78-6.19c1.47,11.3,18.15,10.39,26.03,7.09Z"/>
  <path d="M299.5,171.13c5.73,9.9,22.13,4.03,26.06-4.74-5.63-.5-8.28,5.79-13.58,6.79-5.16.97-7.8-2.05-12.48-2.05Z"/>
  <path class="cls-7" d="M368.27,163.88l2.3-4.54-26.04-9.53,54.49,14.18-18.95-22.5c.68-4.2,17.88,5.07,14.19-2.34-2.35-4.73-17.92-12.3-21.3-18.99.86-2.78,18.04,5.33,14.2-2.34-2.72-5.42-19.96-16.99-20.92-21.66,2.43-12.89,9.77-27.41,11.23-40.18.58-5.07.67-33.93-.17-41.23-1.34-1.21-5.77-4.4-7.44-4.32-6.98.32-34.31,15.84-40.7,20.92-9.48,7.54-16.36,18.64-27.25,24.84-.27,3.15,11.24,2.69,13.33,2.6,2.85-.13,5.2-1.04,7.94-1.41-2.12,9.8-8.94,12.52,4.57,16.88l-2.19,4.43,9.48-2.34-.31,5.98,9.78,3.5-7.1,7.08c6.41-1.65,10.19-2.8,16.58.03l-4.72,4.7,4.69,4.75,7.17,1.19-7.13,5.91,9.1,2.72-.94,4.49,8.42,2.3-7.09,3.53,9.45,3.58-11.82,3.53,11.84,3.58-2.23,6.78c5.31-.41,14.37,14.25,11.69,16.89l-42.63-11.86,18.94-4.7-11.83-.04,4.72-4.7-18.94-2.41,9.46-4.7-18.93-.03,7.09-7.08-20.17,7.07-1.13-4.7c-5.56-5.06-16.95,18.84-17.93,23.54-1.84,8.91.64,17.77-3.41,26.19,6.19,1.21,4.1-1.31,5.87-4.67,1.89-3.58,2.96-7.77,6.07-10.62,16.45-15.16,42.93,3.98,61.5,5.84l-9.49,3.54,9.5,5.91-9.5,1.2,9.5,5.9-9.47.04,4.72,4.7-7.09,2.37,9.46,1.2c-3.86,5.71-12.72,5.21-17.32,8.18-2.02,1.3-2.33,4.28-4.15,5.77-4.93,4.05-11.31,8.86-13.13,15.76,9.21-4.07,27.32-10.93,31.07-16.66l-5.93-4.73,30.79-4.78-11.77-7.24,2.02-4.27-6.83-5.04,26.05,4.71c4.09-3.67-16.89-17.31-21.26-16.7ZM361.09,90.55c-7.04-5.94-14.37-11.37-21.89-16.7-1.4-.99-1.74-3.34-2.51-3.82-2.93-1.8-10.11-2.37-10.87-3.43-6.61-9.31,11.97-26.23,18.66-31.77,5.29-4.38,19.97-16.35,26.26-11.96,8.73,6.1-4.17,57.35-9.65,67.68Z"/>
  <path class="cls-1" d="M361.09,90.55c-7.04-5.94-14.37-11.37-21.89-16.7-1.4-.99-1.74-3.34-2.51-3.82-2.93-1.8-10.11-2.37-10.87-3.43-6.61-9.31,11.97-26.23,18.66-31.77,5.29-4.38,19.97-16.35,26.26-11.96,8.73,6.1-4.17,57.35-9.65,67.68Z"/>
  <path class="cls-1" d="M147.83,90.55c.44-7.16,10.84-7.68,12.35-15.95l32.67-8.89c-3.7-7.83-8-15.42-13.19-22.35-6.95-9.29-19.34-22.14-29.67-27.18-5.51-2.69-11.68-6.1-15.18.94-5.51,11.1,2.77,57.14,8.78,69.41.88,1.8,1.95,4.1,4.23,4.03Z"/>
  <path class="cls-1" d="M104.53,68.49S36.09,101.23,10.23,203.14c0,0,45.63-114.15,94.3-134.64Z"/>
  <path class="cls-6" d="M20.38,194.81S66.01,80.66,114.68,60.16c0,0-68.44,32.74-94.3,134.64h0Z"/>
  <path class="cls-1" d="M53.82,130.67s-47.09,59.49-25.54,162.39c0,0-9.17-122.59,25.54-162.39Z"/>
  <path class="cls-6" d="M33.73,281.11s-9.17-122.59,25.54-162.39c0,0-47.09,59.49-25.54,162.39h0Z"/>
  <path class="cls-1" d="M64.94,301.43s110.8-13.25,172.93,9.49c0,0-77.12-124.41-172.93-9.49Z"/>
  <path class="cls-5" d="M107.57,254.03l1.19-7.08-21.34,18.94-1.19-7.1c-2.51-3.06-26.91,35.4-21.29,42.64l6.42-11.41,5.39,6.66c3.08-18.49,15.75-16.54,28.76-23.68,11.84-6.5,7.33-5.09,22.27-8.18,5.87-1.21,9.28-5.17,16.39-4.79,14.94.8,22.56-.42,37.33,2.22l-7.13,6.12c13.09,1.75,35.36,11,44.6,20.16,2.15,2.13.5,5.07,2.19,6.99,4.74,5.39,10.93,11.11,16.71,15.4-1.28-8.59-8.36-16.47-14.19-22.52l4.73-2.35c-6.6-6.83-16.54-12.12-26.05-13.06l16.56-4.7c-6.65-.52-10.94-5.65-16.55-8.34-4.36-2.09-10.24-2.44-14.25-4.71-7.06-3.99,4.12-2.82,2.37-5.91-15.66-2.82-29.16-6.38-45-2.41l3.52-7.12c-9.32,2.54-18.85,4.09-27.88,7.66-5.26,2.08-8.24,6.27-13.55,6.57Z"/>
  <path class="cls-1" d="M375.3,211.41s-39.54,61.6-62.77,118.62c0,0,46.42-11.36,62.77-118.62Z"/>
  <path class="cls-5" d="M372.93,218.5l-4.7-4.72,2.33,28.42-4.7-4.72c1.29,11.17-1.33,20.43-4.78,30.78l-4.7-23.67c1.75,15.91-4.19,30.48-9.52,45l-7.07-11.83c1.77,14.15-2,25.18-7.15,37.9l-2.33-18.93-1.66,11.38-10.2,21.77c4.39.96,5.63-2.4,8.29-4.73,27.08-23.81,49.95-77.58,48.55-113.73l-2.37,7.09Z"/>
  <text class="cls-2" transform="translate(279.04 374.65) rotate(-22.74)"><tspan x="0" y="0">N</tspan><tspan x="0" y="30">N</tspan><tspan x="0" y="60">N</tspan></text>
  <text class="cls-2" transform="translate(349.67 332.11) rotate(-46.43)"><tspan x="0" y="0">N</tspan><tspan x="0" y="30">N</tspan><tspan x="0" y="60">N</tspan></text>
  <text class="cls-2" transform="translate(394.3 258.91) rotate(-69.73)"><tspan x="0" y="0">N</tspan><tspan x="0" y="30">N</tspan><tspan x="0" y="60">N</tspan></text>
  <text class="cls-2" transform="translate(192.86 378.31) rotate(5.92)"><tspan x="0" y="0">N</tspan><tspan x="0" y="30">N</tspan><tspan x="0" y="60">N</tspan></text>
  <text class="cls-2" transform="translate(104.52 370.15) rotate(34.73)"><tspan x="0" y="0">N</tspan><tspan x="0" y="30">N</tspan></text>
  <text class="cls-2" transform="translate(409.14 182.56) rotate(-92.31)"><tspan x="0" y="0">N</tspan><tspan x="0" y="30">N</tspan><tspan x="0" y="60">N</tspan></text>
  <path class="cls-1" d="M58.69,121.55s-40.35,64.25-7.73,164.2c0,0-22.45-120.86,7.73-164.2Z"/>
  <path class="cls-6" d="M55.08,273.28s-22.45-120.86,7.73-164.2c0,0-40.35,64.25-7.73,164.2h0Z"/>
  <path class="cls-1" d="M20.47,175.34s-32.61,68.51,11.4,163.99c0,0-36.34-117.44-11.4-163.99Z"/>
  <path class="cls-6" d="M34.52,326.46S-1.82,209.02,23.12,162.47c0,0-32.61,68.51,11.4,163.99h0Z"/>
</svg>
